<?xml version="1.0" encoding="UTF-8" ?>
<!DOCTYPE svg PUBLIC "-//W3C//DTD SVG 1.1//EN" "http://www.w3.org/Graphics/SVG/1.1/DTD/svg11.dtd">
<svg width="1024pt" height="1024pt" viewBox="0 0 1024 1024" version="1.1" xmlns="http://www.w3.org/2000/svg">
<g id="#fcfcfcff">
</g>
<g id="#040403ff">
<path fill="#040403" opacity="1.00" d=" M 508.37 80.54 C 513.97 79.25 520.60 81.38 523.51 86.56 C 525.33 89.34 525.70 92.73 525.67 95.98 C 525.66 119.02 525.70 142.05 525.67 165.09 C 525.64 168.95 524.47 172.93 521.76 175.77 C 517.73 179.67 511.66 181.06 506.28 179.63 C 500.80 177.61 498.12 171.53 498.02 166.02 C 497.98 142.33 498.04 118.64 498.00 94.95 C 497.93 88.68 501.81 81.74 508.37 80.54 Z" />
<path fill="#040403" opacity="1.00" d=" M 281.40 139.41 C 285.86 138.28 290.70 139.98 294.23 142.75 C 311.27 159.71 328.24 176.76 345.24 193.76 C 348.26 196.79 351.87 199.67 353.07 203.97 C 355.03 209.86 353.36 217.41 347.85 220.81 C 342.20 224.70 334.22 222.99 329.32 218.68 C 310.67 199.94 291.93 181.28 273.29 162.52 C 266.22 154.92 271.07 140.88 281.40 139.41 Z" />
<path fill="#040403" opacity="1.00" d=" M 737.45 139.55 C 743.50 138.20 750.97 140.91 753.13 147.12 C 754.97 152.49 754.72 159.32 750.28 163.42 C 731.74 182.14 713.08 200.75 694.43 219.35 C 688.81 225.25 677.82 224.51 673.20 217.75 C 668.72 211.18 670.30 201.40 676.64 196.56 C 693.60 179.56 710.48 162.46 727.49 145.51 C 730.11 142.56 733.46 140.14 737.45 139.55 Z" />
<path fill="#040403" opacity="1.00" d=" M 410.41 231.24 C 438.07 219.34 467.77 211.62 497.92 210.51 C 537.92 207.89 578.43 215.89 614.98 232.19 C 647.98 247.94 677.84 270.73 700.52 299.52 C 713.68 316.09 725.07 334.16 733.62 353.54 C 745.56 381.17 752.38 410.99 754.00 441.01 C 753.73 451.66 754.67 462.37 753.22 472.96 C 752.05 488.64 748.74 504.13 744.17 519.17 C 738.88 539.22 729.41 557.91 718.47 575.45 C 711.05 587.77 701.34 598.48 692.86 610.06 C 686.52 618.47 680.84 627.38 675.74 636.60 C 666.27 652.43 659.55 669.86 656.07 687.97 C 654.51 697.97 653.36 708.04 652.71 718.14 C 651.71 723.71 652.45 729.45 651.18 734.99 C 648.84 747.81 642.19 760.00 631.96 768.21 C 625.14 773.18 617.52 777.40 609.13 778.89 C 604.09 779.37 599.04 778.94 593.99 779.00 C 540.66 779.01 487.32 778.98 433.99 779.02 C 424.50 779.63 414.63 779.84 405.64 776.25 C 389.68 770.67 378.23 756.01 373.93 739.99 C 371.63 731.99 371.14 723.64 370.78 715.38 C 369.72 708.96 370.43 702.40 368.85 696.06 C 365.44 674.39 357.96 653.37 346.70 634.55 C 337.47 617.88 325.50 603.00 313.92 587.96 C 309.21 581.84 305.00 575.35 301.25 568.61 C 294.03 555.13 287.12 541.41 281.75 527.07 C 274.72 502.70 269.27 477.51 270.00 452.01 C 269.60 439.26 270.94 426.54 272.98 413.97 C 277.39 386.85 285.61 360.22 298.80 336.04 C 314.10 308.81 333.67 283.69 358.04 264.01 C 374.15 251.13 391.71 239.97 410.41 231.24 M 439.04 250.19 C 402.00 262.64 369.04 286.14 344.22 316.20 C 316.56 349.88 300.46 392.56 297.62 435.94 C 295.68 460.09 297.74 484.58 303.98 508.00 C 308.38 524.81 316.26 540.43 324.68 555.53 C 329.15 563.43 334.79 570.56 340.18 577.84 C 352.93 594.47 365.42 611.50 374.86 630.28 C 379.75 639.93 384.83 649.58 388.05 659.95 C 394.19 679.39 396.32 699.78 397.99 719.99 C 398.18 730.51 401.89 741.94 410.90 748.17 C 416.31 751.40 422.68 752.90 428.98 752.72 C 481.97 752.70 534.96 752.68 587.95 752.71 C 594.12 752.70 600.46 753.19 606.44 751.28 C 611.67 749.58 617.06 746.89 619.81 741.86 C 625.20 734.01 625.45 724.14 626.02 714.99 C 628.05 688.50 632.47 661.50 644.75 637.63 C 652.70 621.26 662.43 605.82 673.24 591.20 C 679.50 582.85 686.40 575.00 692.27 566.36 C 697.65 558.46 702.39 550.14 706.76 541.63 C 717.30 521.22 723.81 498.78 726.13 475.94 C 727.79 463.71 726.91 451.32 727.01 439.01 C 725.08 408.99 717.35 379.17 703.28 352.49 C 691.68 329.77 675.78 309.26 656.77 292.25 C 626.73 265.36 588.84 247.44 549.06 241.01 C 512.39 235.04 474.21 238.16 439.04 250.19 Z" />
<path fill="#040403" opacity="1.00" d=" M 153.17 342.66 C 148.64 333.07 158.67 320.82 168.98 322.85 C 189.00 326.14 208.94 329.93 228.91 333.49 C 233.72 334.54 238.78 334.78 243.34 336.77 C 246.34 338.02 248.20 340.81 249.84 343.47 C 252.40 349.28 250.47 356.56 245.85 360.79 C 242.37 364.03 237.25 363.01 232.94 362.95 C 210.73 359.44 188.70 354.82 166.48 351.38 C 161.20 350.38 155.50 347.84 153.17 342.66 Z" />
<path fill="#040403" opacity="1.00" d=" M 852.17 323.33 C 856.92 322.43 862.48 322.13 866.26 325.72 C 871.95 330.17 873.26 339.04 869.16 344.98 C 866.68 348.73 862.24 350.78 857.88 351.29 C 835.25 355.06 812.65 359.06 790.03 362.88 C 786.02 363.10 781.23 364.00 778.07 360.86 C 773.21 356.88 771.75 349.68 773.91 343.91 C 775.47 339.12 780.02 335.82 784.93 335.10 C 807.31 331.02 829.78 327.37 852.17 323.33 Z" />
<path fill="#040403" opacity="1.00" d=" M 359.58 348.66 C 364.64 343.54 371.94 341.59 378.91 341.00 C 466.61 341.01 554.31 340.99 642.01 341.01 C 649.25 341.59 657.04 342.38 662.95 347.06 C 670.85 353.05 674.49 363.36 674.26 373.04 C 675.33 424.68 674.53 476.33 674.71 527.97 C 674.96 538.45 675.58 550.10 669.08 559.04 C 664.17 566.79 654.94 570.94 645.95 571.02 C 631.58 570.96 617.21 571.07 602.85 570.98 C 599.28 570.83 596.80 567.84 594.58 565.38 C 581.29 551.36 567.94 537.40 554.73 523.31 C 550.79 519.15 546.53 515.28 542.87 510.87 C 540.33 515.73 537.89 520.63 535.25 525.44 C 532.39 530.34 530.88 536.70 525.53 539.57 C 521.08 542.12 515.13 541.02 511.71 537.28 C 509.48 535.03 508.73 531.83 507.78 528.92 C 497.03 496.33 486.59 463.64 475.83 431.05 C 474.54 427.38 474.27 422.99 476.43 419.59 C 478.58 415.40 483.75 414.17 488.08 414.29 C 491.81 414.93 495.02 417.13 498.38 418.76 C 527.97 433.70 557.47 448.84 587.03 463.82 C 589.53 465.20 592.59 466.22 593.95 468.95 C 596.30 473.09 596.17 479.16 592.29 482.35 C 590.88 483.73 588.91 484.20 587.10 484.80 C 578.93 487.23 570.78 489.69 562.65 492.25 C 579.23 510.02 596.19 527.44 613.05 544.95 C 622.71 544.78 632.38 544.95 642.05 544.92 C 643.71 544.97 645.30 544.43 646.88 543.97 C 647.56 542.75 648.09 541.45 648.05 540.03 C 648.89 530.06 648.31 520.03 648.54 510.04 C 648.47 464.69 648.65 419.34 648.28 373.99 C 648.64 370.88 646.82 366.62 643.12 367.09 C 556.72 367.00 470.32 367.09 383.92 367.04 C 379.97 366.65 375.34 369.59 375.96 373.98 C 375.57 424.33 376.12 474.68 376.01 525.02 C 376.00 527.32 375.96 529.65 376.42 531.92 C 377.30 535.96 376.73 540.16 377.76 544.19 C 379.46 544.52 381.19 544.77 382.93 544.76 C 408.63 544.66 434.33 544.61 460.03 544.64 C 467.38 544.69 474.73 544.68 482.07 545.10 C 487.93 546.26 490.03 552.74 489.99 558.01 C 490.01 574.57 489.99 591.14 490.00 607.70 C 519.35 607.80 548.70 608.07 578.06 608.02 C 583.87 607.78 589.34 611.17 591.93 616.34 C 593.07 620.35 592.92 624.99 590.30 628.42 C 587.64 632.37 582.66 634.14 578.05 634.01 C 551.69 633.98 525.33 634.01 498.97 634.00 C 483.96 634.15 468.92 633.64 453.94 634.37 C 449.30 633.64 444.61 634.29 439.97 633.83 C 432.50 631.33 428.98 621.49 432.73 614.67 C 434.73 610.33 439.45 607.81 444.12 607.75 C 450.46 607.41 456.82 607.61 463.16 607.81 C 463.21 595.54 463.02 583.27 463.09 571.00 C 435.73 571.04 408.36 570.98 381.00 571.02 C 376.70 571.13 372.51 570.01 368.42 568.83 C 360.78 565.62 354.58 559.22 351.73 551.43 C 348.68 542.97 348.80 533.84 349.34 524.99 C 349.46 474.65 349.33 424.31 349.38 373.97 C 349.44 364.69 352.48 354.98 359.58 348.66 Z" />
<path fill="#040403" opacity="1.00" d=" M 415.42 807.53 C 418.56 806.89 421.78 806.97 424.97 807.00 C 484.98 807.02 545.00 806.98 605.01 807.02 C 610.93 806.89 616.78 810.27 619.21 815.74 C 622.42 823.19 617.86 832.62 609.93 834.59 C 604.03 835.67 597.99 834.39 592.03 834.64 C 538.04 834.55 484.04 834.49 430.05 834.67 C 423.22 834.40 415.54 836.68 409.46 832.53 C 402.73 828.47 401.03 818.18 406.21 812.22 C 408.43 809.37 411.88 807.87 415.42 807.53 Z" />
<path fill="#040403" opacity="1.00" d=" M 426.64 866.43 C 429.09 861.51 434.63 858.93 439.97 859.05 C 481.29 859.09 522.61 859.05 563.93 859.06 C 571.70 859.15 579.53 858.72 587.25 859.89 C 590.98 860.41 594.12 862.95 596.19 865.99 C 597.67 868.67 597.61 871.89 597.39 874.88 C 597.18 879.97 592.86 884.32 587.96 885.26 C 584.10 886.34 580.05 885.94 576.10 886.00 C 576.35 892.14 573.80 897.90 571.49 903.46 C 566.71 913.35 561.21 923.43 552.39 930.30 C 541.29 940.51 525.95 945.35 511.03 945.01 C 488.72 945.50 467.09 932.03 456.72 912.44 C 452.06 904.13 447.85 895.23 447.07 885.61 C 442.21 885.72 436.89 887.08 432.44 884.47 C 426.28 881.00 423.59 872.82 426.64 866.43 M 474.51 885.59 C 475.67 892.83 478.96 899.68 483.79 905.19 C 495.80 918.86 518.19 921.44 533.04 910.96 C 541.61 905.17 546.99 895.68 549.13 885.70 C 524.26 885.72 499.37 885.92 474.51 885.59 Z" />
</g>
</svg>
